<?xml version="1.0" encoding="UTF-8" standalone="no"?>
<!-- Generator: Adobe Illustrator 23.0.6, SVG Export Plug-In . SVG Version: 6.00 Build 0)  -->

<svg
   version="1.1"
   id="Calque_1"
   x="0px"
   y="0px"
   viewBox="0 0 9.9999992 10"
   xml:space="preserve"
   sodipodi:docname="Creminens logo noir.svg"
   width="10"
   height="10"
   inkscape:version="1.3 (0e150ed6c4, 2023-07-21)"
   inkscape:export-filename="Creminens logo noir.svg"
   inkscape:export-xdpi="96"
   inkscape:export-ydpi="96"
   xmlns:inkscape="http://www.inkscape.org/namespaces/inkscape"
   xmlns:sodipodi="http://sodipodi.sourceforge.net/DTD/sodipodi-0.dtd"
   xmlns="http://www.w3.org/2000/svg"
   xmlns:svg="http://www.w3.org/2000/svg"><defs
   id="defs3" /><sodipodi:namedview
   id="namedview3"
   pagecolor="#505050"
   bordercolor="#ffffff"
   borderopacity="1"
   inkscape:showpageshadow="0"
   inkscape:pageopacity="0"
   inkscape:pagecheckerboard="1"
   inkscape:deskcolor="#505050"
   showgrid="false"
   showguides="false"
   inkscape:zoom="46.282069"
   inkscape:cx="3.8027686"
   inkscape:cy="5.1099703"
   inkscape:window-width="1920"
   inkscape:window-height="1057"
   inkscape:window-x="-8"
   inkscape:window-y="-8"
   inkscape:window-maximized="1"
   inkscape:current-layer="g17"><inkscape:grid
     id="grid5"
     units="px"
     originx="0"
     originy="0"
     spacingx="0.99999992"
     spacingy="1"
     empcolor="#0099e5"
     empopacity="0.30196078"
     color="#0099e5"
     opacity="0.14902"
     empspacing="5"
     dotted="false"
     gridanglex="30"
     gridanglez="30"
     visible="false" /></sodipodi:namedview>&#10;<style
   type="text/css"
   id="style1">&#10;	.st0{fill:#010202;}&#10;</style>&#10;&#10;&#10;&#10;&#10;<rect
   style="fill:none"
   id="rect8"
   width="10.889747"
   height="0.92908543"
   x="1.0155121"
   y="0.043213278" /><rect
   style="fill:none"
   id="rect9"
   width="9.7878075"
   height="5.9634328"
   x="1.0155121"
   y="0.086426556" /><rect
   style="fill:none"
   id="rect10"
   width="0.86426562"
   height="2.5495834"
   x="8.6426563"
   y="3.6947355" /><g
   id="g15"
   transform="matrix(0.81818182,0,0,1,0.18181818,0)"><g
     id="g16" /></g><g
   id="g17"><path
     id="rect3"
     style="fill:#000000;stroke-width:1.08244"
     d="M 0 0 L 0 10 L 1 10 L 10 10 L 10 9 L 5 9 L 5 7 L 7 7 L 7 6 L 5 6 L 5 4 L 10 4 L 10 3 L 4 3 L 4 4 L 4 9 L 1 9 L 1 1 L 10 1 L 10 0 L 1 0 L 0 0 z " /><rect
     style="fill:#000000;stroke-width:0.695049"
     id="rect14"
     width="1"
     height="1.0121891"
     x="9"
     y="5.9506922" /></g></svg>
